<?xml version="1.0" encoding="UTF-8" standalone="no"?>
<!-- Created with Inkscape (http://www.inkscape.org/) -->

<svg
   xmlns:dc="http://purl.org/dc/elements/1.1/"
   xmlns:cc="http://creativecommons.org/ns#"
   xmlns:rdf="http://www.w3.org/1999/02/22-rdf-syntax-ns#"
   xmlns:svg="http://www.w3.org/2000/svg"
   xmlns="http://www.w3.org/2000/svg"
   xmlns:xlink="http://www.w3.org/1999/xlink"
   xmlns:sodipodi="http://sodipodi.sourceforge.net/DTD/sodipodi-0.dtd"
   xmlns:inkscape="http://www.inkscape.org/namespaces/inkscape"
   width="744.09448819"
   height="1052.3622047"
   id="svg2"
   version="1.1"
   inkscape:version="0.48.4 r9939"
   sodipodi:docname="drawingInk.svg">
  <defs
     id="defs4">
    <linearGradient
       inkscape:collect="always"
       xlink:href="#linearGradient3260-7"
       id="linearGradient3266-6"
       x1="90.913727"
       y1="151.72095"
       x2="105.05586"
       y2="533.22095"
       gradientUnits="userSpaceOnUse"
       gradientTransform="matrix(1,0,0,0.79170543,0,41.289336)" />
    <linearGradient
       inkscape:collect="always"
       id="linearGradient3260-7">
      <stop
         style="stop-color:#000000;stop-opacity:1;"
         offset="0"
         id="stop3262-9" />
      <stop
         style="stop-color:#000000;stop-opacity:0;"
         offset="1"
         id="stop3264-7" />
    </linearGradient>
  </defs>
  <sodipodi:namedview
     id="base"
     pagecolor="#ffffff"
     bordercolor="#666666"
     borderopacity="1.0"
     inkscape:pageopacity="0.0"
     inkscape:pageshadow="2"
     inkscape:zoom="0.24748737"
     inkscape:cx="-5.5390393"
     inkscape:cy="819.32596"
     inkscape:document-units="px"
     inkscape:current-layer="layer1"
     showgrid="false"
     inkscape:window-width="1366"
     inkscape:window-height="744"
     inkscape:window-x="0"
     inkscape:window-y="24"
     inkscape:window-maximized="1"
     inkscape:snap-to-guides="false"
     inkscape:snap-grids="false"
     inkscape:snap-page="false" />
  <metadata
     id="metadata7">
    <rdf:RDF>
      <cc:Work
         rdf:about="">
        <dc:format>image/svg+xml</dc:format>
        <dc:type
           rdf:resource="http://purl.org/dc/dcmitype/StillImage" />
        <dc:title></dc:title>
      </cc:Work>
    </rdf:RDF>
  </metadata>
  <g
     inkscape:label="Layer 1"
     inkscape:groupmode="layer"
     id="layer1">
    <path
       style="fill:#000000;fill-opacity:1;fill-rule:nonzero;stroke:none"
       d="M 827.64856,-70.6605 C 707.38345,-151.9367 858.51147,-340.0237 738.43363,-421.3761 578.81469,-472.5992 503.99839,-613.7036 500.09487,-759.691 475.72386,-902.6636 288.77735,-994.8802 100.66208,-922.2555 c -161.832734,35.2239 -311.52245,-28.5991 -474.512,36.6469 -143.30355,75.713 -81.12711,220.7296 -184.80037,313.6031 -110.51931,81.471 -270.64567,29.5188 -365.82489,137.0063 -121.82352,138.9232 -77.30222,300.4658 0.65962,410.1915 52.4587,79.22843 150.56904,135.32033 154.52365,238.74232 20.70636,140.60799 -45.74756,314.38085 62.0709,423.91622 71.5814,49.31058 188.01083,30.36929 277.56961,53.73863 92.02487,13.1649 162.20208,68.63855 166.25115,149.28878 34.73192,117.90312 146.39869,232.98015 319.292731,208.05105 C 187.29664,1028.4547 304.62135,911.73185 291.50599,808.23461 271.16611,692.17744 433.82369,691.0504 528.67491,671.5685 661.55033,653.52585 780.40524,543.78172 784.89507,436.85662 803.16377,367.08694 714.40609,296.9523 833.96762,260.99479 931.11901,187.8508 1009.2767,76.19903 999.10832,-19.3859 c -0.2627,-52.0403 -102.96449,-65.4233 -171.45976,-51.2746 -60.96558,12.5923 -91.61689,47.7012 -48.35555,85.93966 77.50049,-34.87966 181.6128,37.96954 95.61756,86.79321 -100.17614,61.32828 -216.66601,152.79849 -188.62463,251.87113 89.36458,76.86489 -27.739,189.81435 -153.6086,196.33167 -104.31788,13.85729 -256.28732,50.54706 -260.58158,161.49932 -12.88869,85.01489 -62.9406,202.60163 -190.120957,215.32195 -172.67109,28.9066 -288.423033,-84.70356 -317.173503,-204.22427 -13.01594,-99.86543 -103.27559,-174.2835 -231.31198,-171.45715 -95.34764,14.21748 -199.17204,7.69344 -236.474,-64.28957 -82.31912,-120.93764 3.60114,-289.44774 -46.63749,-421.43228 -30.2626,-102.90007 -116.2826,-175.67717 -191.33914,-252.33207 -59.28799,-93.4917 85.03917,-235.0703 214.71826,-205.6007 138.70615,-9.0724 269.57921,-124.4107 252.37731,-234.8875 9.43301,-106.8728 156.55572,-180.9037 270.14054,-176.2187 99.92567,4.8389 195.2093583,25.5229 302.758803,-1.2263 117.345817,-22.0866 257.061267,-28.7932 313.336657,55.3182 77.94695,74.6603 63.40955,189.011 95.99488,283.0796 33.08521,113.2513 208.6071,120.0008 252.62298,224.9055 0.37222,84.4225 -59.09119,195.0275 18.30489,256.54796 38.93301,18.92505 55.53244,-66.01806 48.35555,-85.93966 z"
       id="path3627"
       inkscape:connector-curvature="0"
       sodipodi:nodetypes="c" />
    <path
       style="fill:#aa0000;fill-opacity:1;fill-rule:nonzero;stroke:none"
       d="M 811.64857,-70.660482 C 691.38347,-151.93668 773.8211,-283.45514 791.12394,-389.0512 805.2513,-476.63979 487.99839,-613.70358 484.09489,-759.69098 459.72389,-902.66357 171.76214,-1047.4081 28.093548,-934.3773 c -56.776883,79.67061 -145.857438,128.9847 -373.496748,44.72812 -58.45073,-65.70836 -311.44189,168.20166 -346.42478,329.76553 30.90205,121.8771 -104.98065,45.68124 -200.15987,153.16874 -121.82355,138.9232 -109.62715,247.93787 -31.66526,357.663567 52.4587,79.22845 9.14768,163.604623 93.9145,238.742353 150.00588,132.52678 111.83623,374.98995 219.65469,484.52535 71.5814,49.3106 175.889,115.22212 245.24473,49.69799 152.63403,-59.56608 170.2833,40.35433 198.57603,64.43599 123.625349,69.41578 -51.5912,289.54866 355.65822,252.49776 131.40421,-20.4746 167.9167,-205.88782 154.8013,-309.38502 -20.3399,-116.0572 227.17052,-92.94054 322.02172,-112.42244 132.8754,-18.0427 134.55268,-38.89338 139.04248,-145.81848 C 766.96072,391.33063 653.95936,402.00823 785.64269,313.5227 882.79409,240.3788 876.09893,290.3514 934.62092,202.84767 1035.3735,69.995175 880.14377,-84.809182 811.64857,-70.660482 c -60.9656,12.5923 -91.6169,47.7012 -48.3556,85.93966 77.5005,-34.87966 149.28792,147.066062 63.29272,195.889662 -100.1762,61.3283 -184.3411,43.70203 -156.29972,142.77473 89.3645,76.8648 4.5859,230.2204 -121.2837,236.7377 -104.3179,13.8573 -240.12496,-98.95547 -244.41916,11.99673 -12.8887,85.0149 -22.5345,279.37329 -137.59307,336.5403 -200.955344,73.3533 -231.854467,-117.02848 -264.64555,-216.34613 -17.05655,-83.70296 -2.26033,-145.99923 -384.85516,-98.72612 -95.34764,14.2175 -284.02485,-40.79392 -321.32681,-112.77692 -82.31912,-120.9376 88.45395,-398.54417 38.21532,-530.528776 -30.2626,-102.900054 -116.2826,-90.824334 -191.33914,-167.479234 -59.288,-93.4917 52.71429,-214.86725 182.39338,-185.39765 138.70615,-9.0724 204.92945,-197.14168 187.72755,-307.61848 9.43301,-106.8728 306.05829,-188.98491 375.1964,-103.48772 43.35712,65.44805 235.615454,-6.80198 306.79939,-73.95727 117.3458,-22.0866 366.15778,-44.95564 321.41792,59.3588 -67.51507,66.57908 2.80035,306.18869 87.91368,319.44509 202.79083,24.35788 220.72891,35.14799 224.33861,103.68719 -19.83075,177.35654 -107.57852,287.961536 -30.18242,349.481996 38.933,18.9250502 120.18226,-25.611958 113.00536,-45.533558 z"
       id="path3627-5"
       inkscape:connector-curvature="0"
       sodipodi:nodetypes="c" />
  </g>
</svg>
